<!-- Uploaded to: SVG Repo, www.svgrepo.com, Transformed by: SVG Repo Mixer Tools -->
<svg fill="#ffffff" width="256px" height="256px" viewBox="-3.2 -3.2 38.40 38.40" version="1.1" xmlns="http://www.w3.org/2000/svg" stroke="#ffffff" stroke-width="0.00032" transform="matrix(1, 0, 0, 1, 0, 0)rotate(0)">

<g id="SVGRepo_bgCarrier" stroke-width="0"/>

<g id="SVGRepo_tracerCarrier" stroke-linecap="round" stroke-linejoin="round"/>

<g id="SVGRepo_iconCarrier"> <title>bars-sort</title> <path d="M30 7.249h-28c-0.414 0-0.75 0.336-0.75 0.75s0.336 0.75 0.75 0.75v0h28c0.414 0 0.75-0.336 0.75-0.75s-0.336-0.75-0.75-0.75v0zM18 15.25h-16c-0.414 0-0.75 0.336-0.75 0.75s0.336 0.75 0.75 0.75v0h16c0.414 0 0.75-0.336 0.75-0.75s-0.336-0.75-0.75-0.75v0zM8.053 23.25h-6.053c-0.414 0-0.75 0.336-0.75 0.75s0.336 0.75 0.75 0.75v0h6.053c0.414 0 0.75-0.336 0.75-0.75s-0.336-0.75-0.75-0.75v0z"/> </g>

</svg>